<svg width="52" height="52" viewBox="0 0 52 52" fill="none" xmlns="http://www.w3.org/2000/svg">
<g clip-path="url(#clip0_2053_1699)">
<path d="M0 0H52V52H0V0Z" fill="#5A2D2C"/>
<path d="M17.7957 13.4346C18.7658 13.6177 19.6346 13.9297 20.6641 14.0905C20.6915 16.2669 20.6704 18.4915 20.6681 20.6716C19.2839 20.6388 17.7714 20.6704 16.377 20.6713L14.1202 20.6747C13.9053 19.7003 13.654 18.7771 13.4282 17.8113C13.8509 17.501 15.1395 16.1439 15.5707 15.7034C16.0854 15.1778 17.4511 13.9252 17.7957 13.4346Z" fill="#C5956A"/>
<path d="M14.1053 31.3291L20.6674 31.3365L20.6685 37.8952L19.599 38.1132C19.0592 38.2317 18.369 38.4376 17.8145 38.579C17.4214 38.0716 16.2299 36.9459 15.7236 36.4443C15.2074 35.9329 13.8882 34.5124 13.4302 34.1931C13.6251 33.2549 13.9018 32.3196 14.1053 31.3291Z" fill="#C5956A"/>
<path d="M31.322 31.3325C33.4261 31.3307 35.8067 31.2742 37.8882 31.3499C38.1271 32.2442 38.3351 33.2487 38.5761 34.176C37.9005 34.7399 36.9809 35.7303 36.3437 36.3818C35.797 36.9152 34.5975 38.0341 34.1804 38.5751C33.1904 38.3348 32.3463 38.0895 31.3328 37.896C31.2997 35.7352 31.3327 33.5024 31.322 31.3325Z" fill="#A0672D"/>
<path d="M34.0407 13.4711C34.2374 13.4326 34.6017 13.8784 34.7588 14.0339C35.5386 14.8042 36.3126 15.5803 37.0808 16.3623C37.4949 16.782 38.1234 17.4637 38.5689 17.8028C38.3538 18.7512 38.1033 19.7106 37.8842 20.6694L35.9278 20.6706L31.3352 20.6682C31.3057 18.507 31.3322 16.2693 31.3329 14.1027C32.2702 13.9301 33.1789 13.6266 34.0407 13.4711Z" fill="#C5956A"/>
<path d="M38.1787 21.3584C38.3233 21.3953 40.3509 22.7134 40.63 22.8873C40.599 24.4469 40.6424 26.0219 40.6236 27.5828C40.6177 28.0818 40.619 28.6041 40.654 29.1003C39.8578 29.5892 38.9428 30.1215 38.1963 30.6701L37.2329 29.6697C36.1003 28.5317 34.6493 27.181 33.5989 26.0246C33.8556 25.6425 34.9049 24.6429 35.2838 24.2683C36.2621 23.3116 37.2271 22.3416 38.1787 21.3584Z" fill="#C5956A"/>
<path d="M25.9898 33.6123C26.3141 33.7986 27.7197 35.2749 28.0992 35.6589C28.9407 36.5151 29.7938 37.3596 30.6585 38.1923C30.1466 38.9056 29.5779 39.8849 29.0966 40.648C28.1614 40.5959 27.0261 40.6249 26.0762 40.6256C25.0196 40.6195 23.963 40.6249 22.9066 40.642C22.3866 39.8562 21.8953 38.9489 21.335 38.2049C22.2814 37.2847 23.2175 36.3539 24.1433 35.4129C24.5562 34.9919 25.5537 33.9331 25.9898 33.6123Z" fill="#C5956A"/>
<path d="M22.9124 11.3584C24.711 11.4468 27.2564 11.3784 29.0802 11.3688C29.6422 12.1392 30.0814 12.9996 30.6577 13.7972C29.7716 14.7726 28.5326 15.8321 27.5707 16.8752C27.1123 17.3499 26.479 18.0117 25.9737 18.4096C25.2892 17.7751 24.6328 17.064 23.9757 16.3995C23.1108 15.5266 22.235 14.6644 21.3486 13.8132C21.8915 13.0058 22.3772 12.1734 22.9124 11.3584Z" fill="#A0672D"/>
<path d="M13.7484 21.3711C13.7562 21.3714 13.7642 21.3707 13.7719 21.3722C13.8841 21.3931 18.1458 25.6716 18.3908 26.0054C18.1048 26.3957 17.3005 27.1536 16.9418 27.5034C16.2723 28.16 15.6062 28.8201 14.9435 29.4838C14.5557 29.8684 14.193 30.2712 13.7922 30.6647C13.0628 30.1195 12.1585 29.5985 11.3752 29.1042L11.3687 22.9164C12.1473 22.3718 12.9904 21.9395 13.7484 21.3711Z" fill="#A0672D"/>
</g>
<defs>
<clipPath id="clip0_2053_1699">
<rect width="52" height="52" fill="white"/>
</clipPath>
</defs>
</svg>
