<svg width="52" height="52" viewBox="0 0 52 52" fill="none" xmlns="http://www.w3.org/2000/svg">
<g clip-path="url(#clip0_2053_1677)">
<path d="M0 0H52V52H0V0Z" fill="#EB582B"/>
<path d="M9.55225 13.0266C10.276 13.0196 10.9999 13.0166 11.7238 13.0178C12.2587 13.6207 12.6844 14.3404 13.1633 14.9864C14.5321 16.8329 15.725 18.9503 17.145 20.7478C17.0874 18.2059 17.15 15.6031 17.114 13.0487L19.6853 13.0334C19.7315 13.9734 19.707 15.0963 19.7044 16.0414C19.6984 17.5037 19.7017 18.9661 19.7142 20.4283C19.7334 20.3363 19.7519 20.2792 19.7407 20.1848L19.7871 20.1396C19.8503 20.9829 19.956 23.5196 19.7777 24.3073L19.7179 24.2347L19.7137 25.1857C17.0851 25.206 17.76 25.5486 16.263 23.3981C15.4296 22.211 14.6074 21.0161 13.7964 19.8136C13.3494 19.1605 12.465 18.0697 12.1507 17.4127C12.2239 19.8622 12.1424 22.6976 12.139 25.1891C11.2868 25.1785 10.4344 25.1853 9.58236 25.2095C9.64081 24.2796 9.559 22.4392 9.56154 21.412C9.56839 18.6565 9.63106 15.7731 9.55225 13.0266Z" fill="#FDFEFD"/>
<path d="M19.7144 20.4283C19.7335 20.3363 19.752 20.2792 19.7408 20.1848L19.7872 20.1396C19.8504 20.983 19.9561 23.5196 19.7778 24.3074L19.718 24.2348L19.7144 20.4283Z" fill="#B95E25"/>
<path d="M39.1693 13.038C39.868 13.0472 41.0314 13.0806 41.7003 13.0031C41.7996 14.3 41.7503 16.0849 41.7502 17.4266L41.7526 25.0898L41.7091 25.1601C41.1634 25.2165 40.0621 25.1976 39.4866 25.1908C39.1723 24.6269 38.5219 23.7796 38.1236 23.2155L35.9856 20.1265C35.4167 19.3119 34.6622 18.2834 34.1911 17.4249C34.1059 18.9968 34.1533 20.7613 34.1384 22.3442C34.1323 22.9987 34.1003 24.6061 34.167 25.2006C33.3083 25.1724 32.4136 25.1894 31.5518 25.1945C31.6358 24.2753 31.5763 22.0967 31.5758 21.1131L31.5781 13.002C32.163 13.0656 33.1338 13.0494 33.7571 13.0613C34.1895 13.5174 34.7691 14.4278 35.1401 14.9699C35.919 16.0896 36.6836 17.2191 37.4338 18.3583C37.8984 19.0537 38.7871 20.2347 39.1505 20.9134C39.1868 18.4334 39.2363 15.5023 39.1693 13.038Z" fill="#FDFEFD"/>
<path d="M27.0412 27.7646L28.3838 27.7691L28.3892 32.0174C29.3801 30.1516 31.5693 29.9648 33.0937 31.2248C34.9332 32.7452 34.9223 36.2958 33.4516 38.052C33.2495 38.2581 33.0281 38.4445 32.7905 38.6084C31.5515 39.4463 29.832 39.4574 28.8179 38.233C28.6543 38.0355 28.5171 37.8256 28.3753 37.6122C28.3282 38.0966 28.3369 38.522 28.3588 39.0064C27.928 39.0168 27.4968 39.015 27.0661 39.0011C26.9817 35.2776 27.113 31.4856 27.0412 27.7646Z" fill="#FDFEFD"/>
<path d="M30.3077 31.6969C32.7783 31.5412 33.3064 33.342 33.1383 35.4206C33.038 36.6594 32.5073 37.5921 31.227 37.9255C29.8863 38.1684 28.7302 37.376 28.4939 36.0248C28.206 34.3784 28.283 32.1188 30.3077 31.6969Z" fill="#EB582B"/>
<path d="M21.8366 13.0156C22.535 13.0916 23.9672 13.0558 24.6943 13.0554L29.9045 13.0535C29.9008 13.7626 29.9052 14.4716 29.9177 15.1806L24.374 15.1762C24.3937 16.1423 24.3803 17.1538 24.382 18.1235C25.9239 18.0704 27.7689 18.1206 29.3325 18.1298C29.3063 18.6899 29.3155 19.2561 29.3185 19.8171L29.3354 20.191C27.6896 20.198 26.0438 20.188 24.3983 20.161C24.3603 21.8082 24.3806 23.5262 24.3774 25.1788L21.8228 25.1843L21.8366 13.0156Z" fill="#FDFEFD"/>
<path d="M21.367 30.4385C24.786 30.4798 24.5195 32.8349 24.5151 35.3701C24.5075 36.5901 24.5118 37.8101 24.528 39.03C24.0688 39.0208 23.7023 39.0121 23.2429 38.9607C23.2336 38.6417 23.2543 38.2285 23.2614 37.9027C22.1116 39.2019 20.635 39.6223 19.0004 38.7894C18.3333 38.4495 18.0059 37.8678 17.816 37.1609C17.7705 36.9299 17.7538 36.5462 17.7851 36.3054C18.0625 34.1363 20.6345 34.2972 22.2426 33.9965C22.8724 33.8787 23.3216 33.9504 23.2738 33.1458C23.2022 31.9371 22.1568 31.6127 21.1214 31.6499C20.1634 31.6843 19.7848 32.1954 19.199 32.8392C18.7093 32.7208 18.4373 32.6743 18.0084 32.3984C18.6917 31.0018 19.8991 30.5554 21.367 30.4385Z" fill="#FDFEFD"/>
<path d="M23.2056 34.9629L23.245 35.0159C23.2687 35.585 23.3391 36.2573 23.0631 36.7711C22.3856 38.0321 20.7105 38.3129 19.516 37.665C19.1135 37.2943 18.918 36.3836 19.2916 35.9779C20.0362 35.1691 22.1641 35.1019 23.2056 34.9629Z" fill="#EB582B"/>
<path d="M39.0269 30.4849C40.8853 30.3098 41.5806 30.9001 42.5072 32.3865C42.0792 32.5834 41.8482 32.6908 41.3985 32.8153C40.7432 32.1461 40.5163 31.5741 39.3694 31.6421C38.5821 31.6886 37.5826 31.9122 37.6823 32.9218C37.7102 33.7359 39.0752 34.1381 39.839 34.2546C41.8426 34.5601 43.6502 36.1005 41.9983 38.1309C41.4217 38.8396 40.4884 39.1218 39.5203 39.1811C37.6582 39.3064 36.7722 38.5728 36.0347 36.9547C36.4414 36.8917 36.8213 36.8123 37.2235 36.726C37.4378 37.0133 37.719 37.4251 38.011 37.6522C38.858 38.356 41.4938 37.9862 41.2355 36.5519C41.0085 35.2918 38.4819 35.4184 37.5109 34.8165C36.3026 34.0676 35.9696 32.737 36.817 31.6021C37.4022 30.8184 38.1286 30.6154 39.0269 30.4849Z" fill="#FDFEFD"/>
<path d="M9.74268 27.7344L11.0128 27.7637L11.0319 37.7834C12.7116 37.738 14.5784 37.7614 16.2627 37.7793C16.254 38.1577 16.2721 38.6073 16.2777 38.991C14.1064 39.0501 11.9339 39.0534 9.76238 39.001C9.79402 37.943 9.74816 36.5813 9.74715 35.4994L9.74268 27.7344Z" fill="#FDFEFD"/>
</g>
<defs>
<clipPath id="clip0_2053_1677">
<rect width="52" height="52" fill="white"/>
</clipPath>
</defs>
</svg>
