<svg width="52" height="52" viewBox="0 0 52 52" fill="none" xmlns="http://www.w3.org/2000/svg">
<g clip-path="url(#clip0_2053_1666)">
<rect width="52" height="52" fill="#0DBC4C"/>
<path d="M0 0H23.9256H28.0324H52V23.9959V27.8195V52H28.0224H23.9759H0V27.8866V23.9309V0Z" fill="#0DBC4C"/>
<path d="M25.6927 8.70558C26.4505 8.6551 27.4647 8.79769 28.1953 8.98259C30.3884 9.53504 32.2745 10.9316 33.4427 12.8682C33.9586 13.7223 34.3053 14.6677 34.4639 15.6529C34.6138 16.6101 34.5843 17.5208 34.5829 18.4829L34.5776 21.6857C34.5778 22.9597 34.6849 26.6478 34.4214 27.6603C34.2367 28.376 33.8509 29.0238 33.3095 29.527C30.7485 31.9534 26.4531 29.7251 23.7643 31.326C22.7938 31.9091 22.0934 32.8525 21.8161 33.9503C21.5558 35.0145 21.734 36.1388 22.3107 37.0705C24.2672 40.277 29.4008 39.5344 30.1862 35.7807C30.399 34.7636 30.2727 33.7498 31.3256 33.1326C31.854 32.8262 32.4842 32.7472 33.072 32.9138C33.8525 33.1328 34.5267 33.8505 34.567 34.6785C34.724 37.9026 32.8841 40.8071 30.075 42.298C27.9992 43.3799 25.5784 43.5923 23.3459 42.8886C21.0694 42.1848 19.352 40.6564 18.2497 38.5678C16.7935 35.7084 17.2838 32.0204 19.3621 29.591C20.7303 27.9989 22.6211 26.9467 24.6953 26.6232C26.1755 26.3847 27.8963 26.611 29.4029 26.5124C30.078 26.5252 30.2844 26.1202 30.3002 25.445C30.3519 23.2403 30.3088 20.9829 30.3202 18.7755C30.3239 18.0776 30.3364 17.3618 30.2806 16.6919C30.183 15.6312 29.6726 14.6513 28.8595 13.9633C25.9467 11.5014 21.4504 13.5931 21.7162 17.4582C21.8716 19.2712 23.2755 20.8196 25.0533 21.1822C26.2378 21.4239 27.2195 21.1326 27.91 22.4109C28.6395 23.7282 27.6369 25.4636 26.1104 25.483C18.7879 25.5762 14.6214 17.1131 19.5489 11.5554C21.1568 9.74187 23.2952 8.85949 25.6927 8.70558Z" fill="#FEFEFE"/>
</g>
<defs>
<clipPath id="clip0_2053_1666">
<rect width="52" height="52" fill="white"/>
</clipPath>
</defs>
</svg>
