<svg width="52" height="52" viewBox="0 0 52 52" fill="none" xmlns="http://www.w3.org/2000/svg">
<g clip-path="url(#clip0_2053_1695)">
<path d="M0 0H52V52H0V0Z" fill="white"/>
<path d="M25.1125 9.36551C28.2374 9.20778 31.7044 9.7549 34.2529 11.6227C37.1072 13.7146 37.9154 15.8543 38.5019 19.1393C36.6097 19.0839 33.9261 19.0545 32.0372 19.1454C31.9208 18.7193 31.7909 18.2894 31.6211 17.8815C31.0831 16.5883 30.1183 15.7743 28.832 15.2499C27.2821 14.6182 24.5827 14.5966 23.0391 15.2514C22.0978 15.6507 21.2033 16.3173 20.812 17.2908C20.5295 17.9938 20.4737 18.8865 20.778 19.5889C21.7504 21.8338 27.6227 22.863 29.8192 23.4421C31.3487 23.8454 32.9426 24.2993 34.4073 24.8922C36.3727 25.6878 38.18 27.0673 39.0175 29.0637C39.8069 30.9451 39.7675 34.1381 38.9981 36.0031C37.8682 38.742 35.7111 40.5488 33.0202 41.6646C29.5824 43.1346 23.9895 42.8789 20.5167 41.6112C19.3102 41.1708 18.0162 40.3665 16.9741 39.6273C18.9674 39.5857 20.5597 38.6974 21.8925 37.2303C22.1365 36.9617 22.3464 36.5931 22.5724 36.2954C22.8737 36.2232 23.949 36.8665 24.4538 36.9686C25.6429 37.263 26.7408 37.1694 27.94 37.1653C30.4055 37.1569 32.946 35.3283 32.7777 32.6527C32.5743 29.9523 30.489 29.4691 28.3256 28.8355C23.2537 27.3501 14.4354 26.5918 13.9552 19.7507C13.7748 17.1791 14.5689 14.7684 16.3342 12.8824C18.7335 10.3191 21.7447 9.56412 25.1125 9.36551Z" fill="#272727"/>
<path d="M16.07 28.8155C18.2379 28.5063 20.2438 30.0191 20.5424 32.1885C20.841 34.3579 19.3184 36.3564 17.1475 36.6443C14.9916 36.9303 13.01 35.4205 12.7134 33.2661C12.4169 31.1116 13.917 29.1225 16.07 28.8155Z" fill="#FE472D"/>
</g>
<defs>
<clipPath id="clip0_2053_1695">
<rect width="52" height="52" fill="white"/>
</clipPath>
</defs>
</svg>
